<?xml version="1.0" encoding="UTF-8" standalone="no"?>
<svg
   viewBox="0 0 16 16"
   version="1.1"
   id="svg4"
   sodipodi:docname="Parameter_16x.svg"
   xml:space="preserve"
   inkscape:version="1.3.2 (091e20e, 2023-11-25, custom)"
   xmlns:inkscape="http://www.inkscape.org/namespaces/inkscape"
   xmlns:sodipodi="http://sodipodi.sourceforge.net/DTD/sodipodi-0.dtd"
   xmlns="http://www.w3.org/2000/svg"
   xmlns:svg="http://www.w3.org/2000/svg"><sodipodi:namedview
     id="namedview4"
     pagecolor="#FFFFFF"
     bordercolor="#000000"
     borderopacity="0.25"
     inkscape:showpageshadow="2"
     inkscape:pageopacity="0.0"
     inkscape:pagecheckerboard="0"
     inkscape:deskcolor="#d1d1d1"
     inkscape:zoom="49.6875"
     inkscape:cx="7.9899371"
     inkscape:cy="8"
     inkscape:window-width="1920"
     inkscape:window-height="991"
     inkscape:window-x="-9"
     inkscape:window-y="-9"
     inkscape:window-maximized="1"
     inkscape:current-layer="svg4" /><defs
     id="defs1"><style
       id="style1">.canvas{fill: none; opacity: 0;}.light-defaultgrey-10{fill: #212121; opacity: 0.1;}.light-defaultgrey{fill: #212121; opacity: 1;}.cls-1{opacity:0.75;}</style><style
       id="style1-3">.canvas{fill: none; opacity: 0;}.light-green{fill: #1f801f; opacity: 1;}</style></defs><title
     id="title1">IconLightASPRazorFile</title><g
     id="level-1"
     style="display:inline"><g
       style="opacity:0.75"
       id="g3"><path
         d="m 13.5,4.5 v 10 h -11 v -13 h 8 z"
         style="opacity:0.1;fill:#212121"
         id="path2" /><path
         d="m 13.854,4.146 -3,-3 L 10.5,1 h -8 L 2,1.5 v 13 L 2.5,15 h 11 L 14,14.5 V 4.5 Z M 3,14 V 2 h 7 v 3 h 3 v 9 z"
         style="opacity:1;fill:#212121"
         id="path3" /></g><path
       d="M 8.82,10.147 H 8.8 A 1.36,1.36 0 0 1 7.419,11.2 1.3,1.3 0 0 1 6.364,10.71 2.029,2.029 0 0 1 5.964,9.389 2.942,2.942 0 0 1 6.513,7.56 1.728,1.728 0 0 1 7.961,6.832 1.039,1.039 0 0 1 8.571,7.02 0.848,0.848 0 0 1 8.918,7.472 H 8.933 C 8.942,7.38 8.967,7.193 9.006,6.91 h 0.81 q -0.228,2.578 -0.229,2.627 0,0.967 0.5,0.967 a 0.881,0.881 0 0 0 0.762,-0.54 2.853,2.853 0 0 0 0.3,-1.4 A 2.774,2.774 0 0 0 10.331,6.492 3.1,3.1 0 0 0 8.063,5.692 3.027,3.027 0 0 0 5.763,6.664 3.413,3.413 0 0 0 4.85,9.096 3.155,3.155 0 0 0 5.728,11.42 3.193,3.193 0 0 0 8.1,12.3 4.6,4.6 0 0 0 10.106,11.9 v 0.752 a 5.489,5.489 0 0 1 -2.133,0.362 3.963,3.963 0 0 1 -2.9,-1.075 3.757,3.757 0 0 1 -1.1,-2.812 4.046,4.046 0 0 1 1.166,-2.964 3.991,3.991 0 0 1 2.968,-1.177 4.069,4.069 0 0 1 2.806,0.987 3.278,3.278 0 0 1 1.11,2.573 2.934,2.934 0 0 1 -0.6,1.907 1.829,1.829 0 0 1 -1.472,0.744 Q 8.826,11.2 8.82,10.147 Z M 8.044,7.525 a 0.99,0.99 0 0 0 -0.867,0.528 2.438,2.438 0 0 0 -0.329,1.313 1.391,1.391 0 0 0 0.222,0.833 0.7,0.7 0 0 0 0.593,0.3 0.95,0.95 0 0 0 0.85,-0.554 2.987,2.987 0 0 0 0.312,-1.468 q 0,-0.952 -0.781,-0.952 z"
       style="opacity:1;fill:#1f801f;fill-opacity:1"
       id="path4" /></g></svg>
