<?xml version="1.0" encoding="UTF-8" standalone="no"?>
<svg
   viewBox="0 0 16 16"
   version="1.1"
   id="svg3"
   sodipodi:docname="Folder_16x.svg"
   xml:space="preserve"
   inkscape:version="1.3.2 (091e20e, 2023-11-25, custom)"
   xmlns:inkscape="http://www.inkscape.org/namespaces/inkscape"
   xmlns:sodipodi="http://sodipodi.sourceforge.net/DTD/sodipodi-0.dtd"
   xmlns="http://www.w3.org/2000/svg"
   xmlns:svg="http://www.w3.org/2000/svg"><sodipodi:namedview
     id="namedview3"
     pagecolor="#FFFFFF"
     bordercolor="#000000"
     borderopacity="0.25"
     inkscape:showpageshadow="2"
     inkscape:pageopacity="0.0"
     inkscape:pagecheckerboard="0"
     inkscape:deskcolor="#d1d1d1"
     inkscape:zoom="49.6875"
     inkscape:cx="5.7962264"
     inkscape:cy="8.2616352"
     inkscape:window-width="1920"
     inkscape:window-height="991"
     inkscape:window-x="-9"
     inkscape:window-y="-9"
     inkscape:window-maximized="1"
     inkscape:current-layer="svg3" /><defs
     id="defs1"><style
       id="style1">.canvas{fill: none; opacity: 0;}.light-yellow-10{fill: #996f00; opacity: 0.1;}.light-yellow{fill: #996f00; opacity: 1;}</style><style
       id="style1-7">.canvas{fill: none; opacity: 0;}.light-defaultgrey-10{fill: #212121; opacity: 0.1;}.light-defaultgrey{fill: #212121; opacity: 1;}.cls-1{opacity:0.75;}</style></defs><title
     id="title1">IconLightFolderClosed</title><g
     id="canvas"
     style="fill:none;opacity:0;"><path
       d="M16,16H0V0H16Z"
       style="fill:none;opacity:0;"
       id="path1" /></g><g
     id="level-1"><path
       d="M14.5,3.5v9H1.5V2.5h6l1,1Z"
       style="fill:#ffdf96;opacity:0.5;fill-opacity:1"
       id="path2" /><path
       d="M14.5,3H8.707l-.853-.854L7.5,2h-6L1,2.5v10l.5.5h13l.5-.5v-9ZM7.293,3l.488.488L7.268,4H2V3ZM14,12H2V5H7.475l.354-.146L8.682,4H14Z"
       style="fill:#ffdf96;opacity:1;fill-opacity:1"
       id="path3" /></g><g
     id="g1"
     transform="translate(0.01431158,-0.03018868)"><g
       id="canvas-6"
       style="opacity:0;fill:none"><path
         d="M 16,16 H 0 V 0 h 16 z"
         style="opacity:0;fill:none"
         id="path1-1" /></g><g
       id="level-1-4"><g
         style="opacity:0.75"
         id="g3" /><path
         d="M 0.293,8.705 2.285,10.7 3.7,9.282 1.708,7.291 a 2.983,2.983 0 0 1 3.983,3.983 L 9,14.586 v 0.707 L 8.3,16 H 7.588 L 4.276,12.688 A 2.983,2.983 0 0 1 0.293,8.705 Z"
         style="opacity:1;fill:#212121"
         id="path4" /></g></g></svg>
