<?xml version="1.0" encoding="UTF-8" standalone="no"?>
<svg
   viewBox="0 0 16 16"
   version="1.1"
   id="svg5"
   sodipodi:docname="FolderOpen_16x.svg"
   xml:space="preserve"
   inkscape:version="1.3.2 (091e20e, 2023-11-25, custom)"
   xmlns:inkscape="http://www.inkscape.org/namespaces/inkscape"
   xmlns:sodipodi="http://sodipodi.sourceforge.net/DTD/sodipodi-0.dtd"
   xmlns="http://www.w3.org/2000/svg"
   xmlns:svg="http://www.w3.org/2000/svg"><sodipodi:namedview
     id="namedview5"
     pagecolor="#252526"
     bordercolor="#000000"
     borderopacity="0.25"
     inkscape:showpageshadow="2"
     inkscape:pageopacity="0.0"
     inkscape:pagecheckerboard="0"
     inkscape:deskcolor="#d1d1d1"
     inkscape:zoom="17.567184"
     inkscape:cx="3.9847024"
     inkscape:cy="16.280355"
     inkscape:window-width="1450"
     inkscape:window-height="1020"
     inkscape:window-x="452"
     inkscape:window-y="0"
     inkscape:window-maximized="0"
     inkscape:current-layer="svg5" /><defs
     id="defs1"><style
       id="style1">.canvas{fill: none; opacity: 0;}.light-yellow-10{fill: #996f00; opacity: 0.1;}.light-yellow-25{fill: #996f00; opacity: 0.25;}.light-yellow{fill: #996f00; opacity: 1;}</style><style
       id="style1-0">.canvas{fill: none; opacity: 0;}.light-yellow-10{fill: #996f00; opacity: 0.1;}.light-yellow{fill: #996f00; opacity: 1;}</style><style
       id="style1-2">.canvas{fill: none; opacity: 0;}.light-yellow-10{fill: #996f00; opacity: 0.1;}.light-yellow{fill: #996f00; opacity: 1;}</style><style
       id="style1-7">.canvas{fill: none; opacity: 0;}.light-defaultgrey-10{fill: #FFFFFF; opacity: 0.1;}.light-defaultgrey{fill: #FFFFFF; opacity: 1;}.cls-1{opacity:0.75;}</style></defs><title
     id="title1">IconLightFolderOpened</title><g
     id="canvas"
     style="fill:none;opacity:0;"><path
       d="M16,16H0V0H16Z"
       style="fill:none;opacity:0;"
       id="path1" /></g><g
     id="level-1"
     style="fill:#ffdf96;fill-opacity:1"><path
       d="M13.5,3.5v2h-5l-1,1h-5l-2,6V2.5h5l1,1Z"
       style="fill:#ffdf96;opacity:0.25;fill-opacity:1"
       id="path2" /><path
       d="M8.5,5.5h7l-2,7H.5l2-6h5Z"
       style="fill:#ffdf96;opacity:0.5;fill-opacity:1"
       id="path3" /><path
       d="M15.408,5H14V3.5L13.5,3H6.707l-.853-.854L5.5,2H.5L0,2.5v10l.5.5H13.541l.483-.371,1.868-7ZM1,3H5.293l.853.854L6.5,4H13V5H8.475l-.354.146L7.268,6H2.475L2,6.342,1,9.421Zm12.157,9H1.168L2.835,7h4.64l.353-.146L8.682,6h6.076Z"
       style="fill:#ffdf96;opacity:1;fill-opacity:1"
       id="path4" /><path
       d="M14,12.5H13V6h1Z"
       style="fill:#ffdf96;opacity:0.25;fill-opacity:1"
       id="path5" /></g><g
     id="g2"
     transform="translate(-0.00282712,0.01069526)"><g
       id="g1"
       transform="translate(0.01431158,-0.03018868)"><g
         id="canvas-6"
         style="opacity:0;fill:none"><path
           d="M 16,16 H 0 V 0 h 16 z"
           style="opacity:0;fill:none"
           id="path1-1" /></g><g
         id="level-1-4"><g
           style="opacity:0.75"
           id="g3" /><path
           d="M 0.293,8.705 2.285,10.7 3.7,9.282 1.708,7.291 a 2.983,2.983 0 0 1 3.983,3.983 L 9,14.586 v 0.707 L 8.3,16 H 7.588 L 4.276,12.688 A 2.983,2.983 0 0 1 0.293,8.705 Z"
           style="opacity:1;fill:#FFFFFF"
           id="path4-8" /></g></g></g></svg>
