<?xml version="1.0" encoding="UTF-8" standalone="no"?>
<svg
   version="1.1"
   x="0px"
   y="0px"
   viewBox="0 0 16 16"
   style="enable-background:new 0 0 16 16;"
   xml:space="preserve"
   id="svg3"
   sodipodi:docname="SpecialFolderOpen_16x.svg"
   inkscape:version="1.3.2 (091e20e, 2023-11-25, custom)"
   xmlns:inkscape="http://www.inkscape.org/namespaces/inkscape"
   xmlns:sodipodi="http://sodipodi.sourceforge.net/DTD/sodipodi-0.dtd"
   xmlns="http://www.w3.org/2000/svg"
   xmlns:svg="http://www.w3.org/2000/svg"><defs
   id="defs3"><style
     id="style1">.canvas{fill: none; opacity: 0;}.light-yellow-10{fill: #996f00; opacity: 0.1;}.light-yellow{fill: #996f00; opacity: 1;}</style><style
     id="style1-9">.canvas{fill: none; opacity: 0;}.light-yellow-10{fill: #996f00; opacity: 0.1;}.light-yellow-25{fill: #996f00; opacity: 0.25;}.light-yellow{fill: #996f00; opacity: 1;}</style><style
     id="style1-6">.canvas{fill: none; opacity: 0;}.light-yellow-10{fill: #996f00; opacity: 0.1;}.light-yellow-25{fill: #996f00; opacity: 0.25;}.light-yellow{fill: #996f00; opacity: 1;}</style><style
     id="style1-0">.canvas{fill: none; opacity: 0;}.light-yellow-10{fill: #996f00; opacity: 0.1;}.light-yellow{fill: #996f00; opacity: 1;}</style></defs><sodipodi:namedview
   id="namedview3"
   pagecolor="#FFFFFF"
   bordercolor="#000000"
   borderopacity="0.25"
   inkscape:showpageshadow="2"
   inkscape:pageopacity="0.0"
   inkscape:pagecheckerboard="0"
   inkscape:deskcolor="#d1d1d1"
   inkscape:zoom="48.5625"
   inkscape:cx="7.989704"
   inkscape:cy="7.989704"
   inkscape:window-width="1450"
   inkscape:window-height="1020"
   inkscape:window-x="560"
   inkscape:window-y="54"
   inkscape:window-maximized="0"
   inkscape:current-layer="svg3" />



<g
   id="g2"
   transform="translate(-0.01029601,-0.01029601)"><g
     id="canvas"
     style="opacity:0;fill:none"><path
       d="M 16,16 H 0 V 0 h 16 z"
       style="opacity:0;fill:none"
       id="path1-7" /></g><g
     id="level-1"
     style="fill:#ffdf96;fill-opacity:1"><path
       d="m 13.5,3.5 v 2 h -5 l -1,1 h -5 l -2,6 v -10 h 5 l 1,1 z"
       style="opacity:0.25;fill:#ffdf96;fill-opacity:1"
       id="path2-9" /><path
       d="m 8.5,5.5 h 7 l -2,7 h -13 l 2,-6 h 5 z"
       style="opacity:0.5;fill:#ffdf96;fill-opacity:1"
       id="path3-4" /><path
       d="M 15.408,5 H 14 V 3.5 L 13.5,3 H 6.707 L 5.854,2.146 5.5,2 h -5 L 0,2.5 v 10 L 0.5,13 h 13.041 l 0.483,-0.371 1.868,-7 z M 1,3 H 5.293 L 6.146,3.854 6.5,4 H 13 V 5 H 8.475 L 8.121,5.146 7.268,6 H 2.475 L 2,6.342 1,9.421 Z m 12.157,9 H 1.168 L 2.835,7 h 4.64 L 7.828,6.854 8.682,6 h 6.076 z"
       style="opacity:1;fill:#ffdf96;fill-opacity:1"
       id="path4-3" /><path
       d="M 14,12.5 H 13 V 6 h 1 z"
       style="opacity:0.25;fill:#ffdf96;fill-opacity:1"
       id="path5-9" /></g></g><g
   id="icon_x5F_bg"
   style="enable-background:new 0 0 16 16">
	
	<ellipse
   style="enable-background:new 0 0 16 16;fill:#f9f9f9;stroke-width:8.66565"
   id="path4"
   cx="4.5199485"
   cy="11.490347"
   rx="2.8519948"
   ry="2.8005149" /><path
   style="fill:#FFFFFF;"
   d="M4.5,8C2.6,8,1,9.6,1,11.5C1,13.4,2.6,15,4.5,15S8,13.4,8,11.5C8,9.6,6.4,8,4.5,8z M7,11.5   C7,12.9,5.9,14,4.5,14S2,12.9,2,11.5S3.1,9,4.5,9S7,10.1,7,11.5z M6,11.5C6,12.3,5.3,13,4.5,13S3,12.3,3,11.5S3.7,10,4.5,10   S6,10.7,6,11.5z"
   id="path3" />
</g></svg>
