<?xml version="1.0" encoding="UTF-8" standalone="no"?>
<svg
   viewBox="0 0 16 16"
   version="1.1"
   id="svg4"
   sodipodi:docname="YAMLFile_16x.svg"
   xml:space="preserve"
   inkscape:version="1.3.2 (091e20e, 2023-11-25, custom)"
   xmlns:inkscape="http://www.inkscape.org/namespaces/inkscape"
   xmlns:sodipodi="http://sodipodi.sourceforge.net/DTD/sodipodi-0.dtd"
   xmlns="http://www.w3.org/2000/svg"
   xmlns:svg="http://www.w3.org/2000/svg"><sodipodi:namedview
     id="namedview4"
     pagecolor="#FFFFFF"
     bordercolor="#000000"
     borderopacity="0.25"
     inkscape:showpageshadow="2"
     inkscape:pageopacity="0.0"
     inkscape:pagecheckerboard="0"
     inkscape:deskcolor="#d1d1d1"
     inkscape:zoom="17.567184"
     inkscape:cx="20.208133"
     inkscape:cy="6.06244"
     inkscape:window-width="1920"
     inkscape:window-height="991"
     inkscape:window-x="-9"
     inkscape:window-y="-9"
     inkscape:window-maximized="1"
     inkscape:current-layer="svg4" /><defs
     id="defs1"><style
       id="style1">.canvas{fill: none; opacity: 0;}.light-defaultgrey{fill: #212121; opacity: 1;}.light-defaultgrey-10{fill: #212121; opacity: 0.1;}.cls-1{opacity:0.75;}</style></defs><title
     id="title1">IconLightYamlFile</title><g
     id="canvas"
     style="fill:none;opacity:0;"><path
       d="M16,16H0V0H16Z"
       style="fill:none;opacity:0;"
       id="path1" /></g><g
     id="level-1"><path
       d="M3.57,10.4h.985L2.719,13.965V16h-.93V13.984L0,10.4H1.059l1.1,2.4c.013.028.052.137.117.324h.012a2.138,2.138,0,0,1,.129-.324Zm4.953,3.715q-.088.216-.234.657H8.27a5.7,5.7,0,0,0-.219-.641L6.578,10.4H5.27V16h.859V12.383c0-.508-.011-.874-.031-1.1h.015a3.867,3.867,0,0,0,.149.559L7.938,16h.64l1.672-4.188a3.722,3.722,0,0,0,.152-.527h.016c-.036.43-.055.793-.055,1.09V16h.922V10.4H10.023Zm5.071,1.1V10.4h-.93V16h3.1v-.785Z"
       style="fill:#d24453;opacity:1;fill-opacity:1"
       id="path2" /><g
       style="opacity:0.75;"
       id="g4"><path
         d="M13.5,4.5V9H2.5V1.5h8Z"
         style="fill:#212121;opacity:0.1;"
         id="path3" /><path
         d="M14,4.5V9H13V5H10V2H3V9H2V1.5L2.5,1h8l.354.146,3,3Z"
         style="fill:#212121;opacity:1;"
         id="path4" /></g></g></svg>
