<?xml version="1.0" encoding="UTF-8" standalone="no"?>
<svg
   viewBox="0 0 16 16"
   version="1.1"
   id="svg3"
   sodipodi:docname="ZipFile_16x.svg"
   xml:space="preserve"
   inkscape:version="1.4 (86a8ad7, 2024-10-11)"
   xmlns:inkscape="http://www.inkscape.org/namespaces/inkscape"
   xmlns:sodipodi="http://sodipodi.sourceforge.net/DTD/sodipodi-0.dtd"
   xmlns="http://www.w3.org/2000/svg"
   xmlns:svg="http://www.w3.org/2000/svg"><sodipodi:namedview
     id="namedview3"
     pagecolor="#252526"
     bordercolor="#000000"
     borderopacity="0.25"
     inkscape:showpageshadow="2"
     inkscape:pageopacity="0.0"
     inkscape:pagecheckerboard="0"
     inkscape:deskcolor="#d1d1d1"
     inkscape:zoom="35.134368"
     inkscape:cx="8.0405601"
     inkscape:cy="8.5101858"
     inkscape:window-width="1440"
     inkscape:window-height="830"
     inkscape:window-x="-6"
     inkscape:window-y="-6"
     inkscape:window-maximized="1"
     inkscape:current-layer="iconBg" /><defs
     id="defs1"><style
       id="style1">.canvas{fill: none; opacity: 0;}.light-yellow-10{fill: #996f00; opacity: 0.1;}.light-yellow{fill: #996f00; opacity: 1;}</style><style
       id="style1-8">.canvas{fill: none; opacity: 0;}.light-yellow-10{fill: #996f00; opacity: 0.1;}.light-yellow{fill: #996f00; opacity: 1;}</style></defs><title
     id="title1">IconLightFolderClosed</title><g
     id="canvas"
     style="fill:none;opacity:0;"><path
       d="M16,16H0V0H16Z"
       id="path1"
       style="fill:none;opacity:0;" /></g><g
     id="g3"
     transform="translate(-1.3)"><g
       id="iconBg">
	
	<g
   id="g1"
   transform="translate(1.2786163,-0.00409412)"><g
     id="canvas-2"
     style="opacity:0;fill:none"><path
       d="M 16,16 H 0 V 0 h 16 z"
       style="opacity:0;fill:none"
       id="path1-4" /></g><g
     id="level-1-5"><path
       d="m 14.5,3.5 v 9 h -13 v -10 h 6 l 1,1 z"
       style="opacity:0.5;fill:#ffdf96;fill-opacity:1"
       id="path2-5" /><path
       d="M 14.5,3 H 8.707 L 7.854,2.146 7.5,2 h -6 L 1,2.5 v 10 L 1.5,13 h 13 L 15,12.5 v -9 z M 7.293,3 7.781,3.488 7.268,4 H 2 V 3 Z M 14,12 H 2 V 5 H 7.475 L 7.829,4.854 8.682,4 H 14 Z"
       style="opacity:1;fill:#ffdf96;fill-opacity:1"
       id="path3-1" /></g></g><path
   style="fill:#C5C5C5"
   d="M 13,3 V 4 H 11 V 3 Z m 0,1 V 6 H 11 V 4 h -1 v 9 h 1 v -1 h 1 v -1 h -1 v -1 h 1 V 9 H 11 V 8 h 1 V 7 h 1 v 1 h -1 v 1 h 1 v 1 h -1 v 1 h 1 v 1 h -1 v 1 h 2 V 4 Z"
   id="path4" />
</g></g></svg>
